<svg width="238" height="337" viewBox="0 0 238 337" fill="none" xmlns="http://www.w3.org/2000/svg">
<path fill-rule="evenodd" clip-rule="evenodd" d="M36 1.03818C36 20.6443 20.1061 36.5382 0.5 36.5382C0.333062 36.5382 0.166393 36.537 0 36.5347L0 298.542C0.166393 298.539 0.333062 298.538 0.5 298.538C20.1061 298.538 36 314.432 36 334.038C36 334.702 35.9818 335.362 35.9458 336.017C37.4899 336.165 39.0541 336.036 40.5634 335.63L44.625 334.538L48.6866 335.63C50.8979 336.225 53.2271 336.225 55.4384 335.63L59.5 334.538L63.5616 335.63C65.7729 336.225 68.1021 336.225 70.3134 335.63L74.375 334.538L78.4366 335.63C80.6479 336.225 82.9771 336.225 85.1884 335.63L89.25 334.538L93.3116 335.63C95.5229 336.225 97.8521 336.225 100.063 335.63L104.125 334.538L108.187 335.63C110.398 336.225 112.727 336.225 114.938 335.63L119 334.538L123.062 335.63C125.273 336.225 127.602 336.225 129.813 335.63L133.875 334.538L137.937 335.63C140.148 336.225 142.477 336.225 144.688 335.63L148.75 334.538L152.812 335.63C155.023 336.225 157.352 336.225 159.563 335.63L163.625 334.538L167.687 335.63C169.898 336.225 172.227 336.225 174.438 335.63L178.5 334.538L182.562 335.63C184.773 336.225 187.102 336.225 189.313 335.63L193.375 334.538L197.437 335.63C199.271 336.124 201.186 336.208 203.047 335.883C203.016 335.272 203 334.657 203 334.038C203 314.599 218.624 298.809 238 298.542V36.5347C218.624 36.2673 203 20.4774 203 1.03818C203 0.753685 203.003 0.46997 203.01 0.187074C201.16 -0.130203 199.258 -0.0439035 197.437 0.445977L193.375 1.53818L189.313 0.445978C187.102 -0.148659 184.773 -0.148659 182.562 0.445977L178.5 1.53818L174.438 0.445978C172.227 -0.148659 169.898 -0.148659 167.687 0.445977L163.625 1.53818L159.563 0.445978C157.352 -0.148659 155.023 -0.148659 152.812 0.445977L148.75 1.53818L144.688 0.445978C142.477 -0.148659 140.148 -0.148659 137.937 0.445977L133.875 1.53818L129.813 0.445978C127.602 -0.148659 125.273 -0.148659 123.062 0.445977L119 1.53818L114.938 0.445978C112.727 -0.148659 110.398 -0.148659 108.187 0.445977L104.125 1.53818L100.063 0.445978C97.8521 -0.148659 95.5229 -0.148659 93.3116 0.445977L89.25 1.53818L85.1884 0.445978C82.9771 -0.148659 80.6479 -0.148659 78.4366 0.445977L74.375 1.53818L70.3134 0.445978C68.1021 -0.148659 65.7729 -0.148659 63.5616 0.445977L59.5 1.53818L55.4384 0.445978C53.2271 -0.148659 50.8979 -0.148659 48.6866 0.445977L44.625 1.53818L40.5634 0.445978C39.0674 0.0437016 37.5175 -0.086432 35.9867 0.0555774C35.9955 0.382031 36 0.709585 36 1.03818Z" fill="#2A1872"/>
<line x1="29.5" y1="76.5381" x2="29.5" y2="259.538" stroke="#F5E050" stroke-width="3"/>
<line x1="211.5" y1="76.5381" x2="211.5" y2="259.538" stroke="#F5E050" stroke-width="3"/>
<path d="M29 50.5381L31.2451 57.448H38.5106L32.6327 61.7185L34.8779 68.6283L29 64.3578L23.1221 68.6283L25.3673 61.7185L19.4894 57.448H26.7549L29 50.5381Z" fill="#F5E050" fill-opacity="0.4"/>
<path d="M211 50.5381L213.245 57.448H220.511L214.633 61.7185L216.878 68.6283L211 64.3578L205.122 68.6283L207.367 61.7185L201.489 57.448H208.755L211 50.5381Z" fill="#F5E050" fill-opacity="0.4"/>
<path d="M29 267.538L31.2451 274.448H38.5106L32.6327 278.718L34.8779 285.628L29 281.358L23.1221 285.628L25.3673 278.718L19.4894 274.448H26.7549L29 267.538Z" fill="#F5E050" fill-opacity="0.4"/>
<path d="M211 267.538L213.245 274.448H220.511L214.633 278.718L216.878 285.628L211 281.358L205.122 285.628L207.367 278.718L201.489 274.448H208.755L211 267.538Z" fill="#F5E050" fill-opacity="0.4"/>
</svg>
